<svg version="1.1" id="Layer_1" xmlns="http://www.w3.org/2000/svg" xmlns:xlink="http://www.w3.org/1999/xlink" x="0px" y="0px"
	 width="100%" viewBox="0 0 310 310" enable-background="new 0 0 310 310" xml:space="preserve">
<path fill="#46B4EB" opacity="1.000000" stroke="none" 
	d="
M214.000000,311.000000 
	C142.666702,311.000000 71.833405,311.000000 1.000076,311.000000 
	C1.000051,207.666748 1.000051,104.333496 1.000025,1.000187 
	C104.333199,1.000125 207.666397,1.000125 310.999695,1.000062 
	C310.999817,104.333153 310.999817,207.666306 310.999908,310.999725 
	C278.833344,311.000000 246.666672,311.000000 214.000000,311.000000 
M94.987526,235.500000 
	C94.987526,243.750717 94.987526,252.001450 94.987526,260.360168 
	C105.018600,260.360168 114.264671,260.360168 124.172760,260.360168 
	C124.172760,232.993668 124.172760,205.958801 124.172760,178.527466 
	C126.987595,178.527466 129.141754,178.618225 131.286316,178.513062 
	C148.020508,177.692520 164.938751,178.092743 181.436768,175.655777 
	C200.280563,172.872299 215.591400,162.629166 226.724060,146.811768 
	C233.644180,136.979584 237.183640,126.004311 238.347000,114.025826 
	C239.677551,100.325867 238.377213,87.053596 231.585800,75.045860 
	C218.238586,51.447025 195.868546,42.676586 170.486008,41.230110 
	C147.234894,39.905106 123.873810,40.504547 100.560944,40.280693 
	C98.802818,40.263809 97.042801,40.444508 94.987518,40.548317 
	C94.987518,105.584885 94.987518,170.042435 94.987526,235.500000 
z"/>
<path fill="#FEFFFF" opacity="1.000000" stroke="none" 
	d="
M94.987518,235.000000 
	C94.987518,170.042435 94.987518,105.584885 94.987518,40.548317 
	C97.042801,40.444508 98.802818,40.263809 100.560944,40.280693 
	C123.873810,40.504547 147.234894,39.905106 170.486008,41.230110 
	C195.868546,42.676586 218.238586,51.447025 231.585800,75.045860 
	C238.377213,87.053596 239.677551,100.325867 238.347000,114.025826 
	C237.183640,126.004311 233.644180,136.979584 226.724060,146.811768 
	C215.591400,162.629166 200.280563,172.872299 181.436768,175.655777 
	C164.938751,178.092743 148.020508,177.692520 131.286316,178.513062 
	C129.141754,178.618225 126.987595,178.527466 124.172760,178.527466 
	C124.172760,205.958801 124.172760,232.993668 124.172760,260.360168 
	C114.264671,260.360168 105.018600,260.360168 94.987526,260.360168 
	C94.987526,252.001450 94.987526,243.750717 94.987518,235.000000 
M187.683868,71.706894 
	C179.666565,67.779831 171.155426,66.024216 162.268005,66.005676 
	C149.680176,65.979408 137.092239,65.999016 124.430832,65.999016 
	C124.430832,95.460556 124.430832,124.447479 124.430832,154.530777 
	C140.470856,153.628418 156.069443,153.227066 171.554718,151.686478 
	C179.762741,150.869904 187.435364,147.444214 193.857681,141.734512 
	C204.726440,132.071686 208.564285,119.886497 208.128159,105.652954 
	C207.668427,90.649178 201.903320,79.141197 187.683868,71.706894 
z"/>
<path fill="#46B4EB" opacity="1.000000" stroke="none" 
	d="
M188.031372,71.848663 
	C201.903320,79.141197 207.668427,90.649178 208.128159,105.652954 
	C208.564285,119.886497 204.726440,132.071686 193.857681,141.734512 
	C187.435364,147.444214 179.762741,150.869904 171.554718,151.686478 
	C156.069443,153.227066 140.470856,153.628418 124.430832,154.530777 
	C124.430832,124.447479 124.430832,95.460556 124.430832,65.999016 
	C137.092239,65.999016 149.680176,65.979408 162.268005,66.005676 
	C171.155426,66.024216 179.666565,67.779831 188.031372,71.848663 
z"/>
</svg>